<svg width="30" height="30" viewBox="0 0 30 30" fill="none" xmlns="http://www.w3.org/2000/svg">
<circle opacity="0.76" cx="15" cy="15" r="15" fill="#6152FF"/>
<path d="M7.41672 12.5058C7.41672 11.2929 8.40002 10.3096 9.613 10.3096C10.5933 10.3096 11.5335 9.92014 12.2267 9.22696L12.6921 8.76147C13.3016 8.15198 14.1283 7.80957 14.9902 7.80957H15.4562C16.2647 7.80957 17.0313 8.16866 17.5489 8.78971L17.7397 9.01869C18.4213 9.83664 19.4311 10.3096 20.4958 10.3096C21.6487 10.3096 22.5834 11.2442 22.5834 12.3972V19.0596C22.5834 20.3022 21.576 21.3096 20.3334 21.3096H9.66672C8.42408 21.3096 7.41672 20.3022 7.41672 19.0596V12.5058Z" stroke="white" stroke-width="1.5"/>
<circle cx="15" cy="15.1846" r="3" stroke="white" stroke-width="1.5"/>
<circle cx="20.4332" cy="12.4648" r="0.625" fill="white"/>
</svg>
