<svg width="18" height="18" viewBox="0 0 18 18" fill="none" xmlns="http://www.w3.org/2000/svg">
<path d="M2.25 7.5V9.35C2.25 11.5902 2.25 12.7103 2.68597 13.566C3.06947 14.3186 3.68139 14.9305 4.43404 15.314C5.28968 15.75 6.40979 15.75 8.65 15.75H9.35C11.5902 15.75 12.7103 15.75 13.566 15.314C14.3186 14.9305 14.9305 14.3186 15.314 13.566C15.75 12.7103 15.75 11.5902 15.75 9.35V7.5" stroke="white" stroke-width="1.5" stroke-linecap="round"/>
<path d="M2.25 7.50028C2.25 6.41867 2.25 5.87787 2.38784 5.43898C2.68183 4.50289 3.415 3.76972 4.35109 3.47573C4.78998 3.33789 5.33078 3.33789 6.41238 3.33789H11.5876C12.6692 3.33789 13.21 3.33789 13.6489 3.47573C14.585 3.76972 15.3182 4.50289 15.6122 5.43898C15.75 5.87787 15.75 6.41867 15.75 7.50028V7.50028H2.25V7.50028Z" stroke="white" stroke-width="1.5"/>
<path d="M5.25 2.25V4.5" stroke="white" stroke-width="1.5" stroke-linecap="round"/>
<path d="M12.75 2.25V4.5" stroke="white" stroke-width="1.5" stroke-linecap="round"/>
</svg>
