<svg width="99" height="99" viewBox="0 0 99 99" fill="none" xmlns="http://www.w3.org/2000/svg">
<path d="M20.6918 41.6118H78.08L78.0801 82.6035C78.0802 87.1313 74.4096 90.8019 69.8818 90.8019H28.8903C24.3625 90.8019 20.6919 87.1314 20.6919 82.6036L20.6918 41.6118Z" fill="#FCBF28"/>
<path d="M49.386 41.6118H78.0801L78.0802 82.6035C78.0802 87.1313 74.4097 90.8019 69.8818 90.8019H49.3861L49.386 41.6118Z" fill="#FFAD09"/>
<path d="M37.0883 21.1163C37.0883 16.5885 40.7588 12.918 45.2867 12.918H53.485C58.0128 12.918 61.6834 16.5885 61.6834 21.1163V31.6106H37.0883V21.1163Z" stroke="#FFCB49" stroke-width="6.14876"/>
<path d="M49.386 12.918H53.4852C58.013 12.918 61.6835 16.5885 61.6835 21.1163V31.6106" stroke="#FFBB34" stroke-width="6.14876"/>
<path d="M12.4934 29.3145C12.4934 27.0506 14.3287 25.2153 16.5926 25.2153H82.1793C84.4432 25.2153 86.2785 27.0506 86.2785 29.3145V37.5129C86.2785 39.7768 84.4432 41.612 82.1793 41.612H16.5926C14.3287 41.612 12.4934 39.7768 12.4934 37.5128V29.3145Z" fill="#FFCB49"/>
<path d="M49.386 25.2153H82.1794C84.4433 25.2153 86.2785 27.0506 86.2785 29.3145V37.5129C86.2785 39.7768 84.4433 41.612 82.1794 41.612H49.386V25.2153Z" fill="#FFBB34"/>
<path d="M35.0389 55.1494V77.2648" stroke="#FFAD09" stroke-width="6.14876" stroke-linecap="round"/>
<path d="M49.386 51.8599V80.5541" stroke="#FF8C00" stroke-width="6.14876" stroke-linecap="round"/>
<path d="M49.3861 83.6286C47.6881 83.6286 46.3117 82.2522 46.3117 80.5542V51.86C46.3117 50.1621 47.6881 48.7856 49.3861 48.7856V83.6286Z" fill="#FFAD09"/>
<path d="M63.733 55.1494V77.2648" stroke="#FF8C00" stroke-width="6.14876" stroke-linecap="round"/>
</svg>
