<svg width="40" height="40" viewBox="0 0 40 40" fill="none" xmlns="http://www.w3.org/2000/svg">
<rect opacity="0.1" width="40" height="40" rx="20" fill="#6152FF"/>
<rect x="12.75" y="10.75" width="14.5" height="14.5" rx="7.25" stroke="#6152FF" stroke-width="1.5"/>
<path d="M17.668 24.9999L15.4263 28.8827L13.8625 26.5143L11.0296 26.3442L13.7514 21.6299" stroke="#6152FF" stroke-width="1.5"/>
<path d="M22.2139 24.8463L24.5443 28.8826L26.108 26.5143L28.941 26.3442L26.2809 21.7368" stroke="#6152FF" stroke-width="1.5"/>
<path d="M19.7147 14.8781C19.8045 14.6017 20.1955 14.6017 20.2853 14.8781L20.8307 16.5566C20.8709 16.6802 20.9861 16.7639 21.116 16.7639H22.8809C23.1715 16.7639 23.2924 17.1358 23.0573 17.3066L21.6294 18.344C21.5243 18.4204 21.4803 18.5558 21.5204 18.6794L22.0658 20.358C22.1556 20.6343 21.8393 20.8642 21.6042 20.6934L20.1763 19.656C20.0712 19.5796 19.9288 19.5796 19.8237 19.656L18.3958 20.6934C18.1607 20.8642 17.8444 20.6343 17.9342 20.358L18.4796 18.6794C18.5197 18.5558 18.4757 18.4204 18.3706 18.344L16.9427 17.3066C16.7076 17.1358 16.8285 16.7639 17.1191 16.7639H18.884C19.0139 16.7639 19.1291 16.6802 19.1693 16.5566L19.7147 14.8781Z" fill="#6152FF"/>
</svg>
