<svg width="40" height="40" viewBox="0 0 40 40" fill="none" xmlns="http://www.w3.org/2000/svg">
<rect opacity="0.1" width="40" height="40" rx="20" fill="#6152FF"/>
<path d="M24.25 20C24.25 22.6702 23.7072 25.0506 22.8647 26.7357C21.9998 28.4656 20.9436 29.25 20 29.25C19.0564 29.25 18.0002 28.4656 17.1353 26.7357C16.2928 25.0506 15.75 22.6702 15.75 20C15.75 17.3298 16.2928 14.9494 17.1353 13.2643C18.0002 11.5344 19.0564 10.75 20 10.75C20.9436 10.75 21.9998 11.5344 22.8647 13.2643C23.7072 14.9494 24.25 17.3298 24.25 20Z" stroke="#6152FF" stroke-width="1.5"/>
<path d="M11 20H29" stroke="#6152FF" stroke-width="1.5"/>
<rect x="10.75" y="10.75" width="18.5" height="18.5" rx="9.25" stroke="#6152FF" stroke-width="1.5"/>
</svg>
