<svg width="100" height="100" viewBox="0 0 100 100" fill="none" xmlns="http://www.w3.org/2000/svg">
<circle cx="50" cy="49.8104" r="49.576" fill="#FCBF28"/>
<path d="M50 99.3865C77.3801 99.3865 99.576 77.1905 99.576 49.8104C99.576 22.4303 77.3801 0.234375 50 0.234375V99.3865Z" fill="#FFAD09"/>
<path d="M65.6471 54.3747V58.1028V62.8408C65.6471 66.0411 63.0528 68.6354 59.8525 68.6354H36.5042C33.3039 68.6354 30.7096 66.0411 30.7096 62.8408V32.2995C30.7096 29.0992 33.3039 26.5049 36.5042 26.5049H59.8525C63.0528 26.5049 65.6471 29.0992 65.6471 32.2995V37.0375V40.7656" stroke="white" stroke-width="3.86307" stroke-linecap="round"/>
<path d="M51.9431 28.4364H50.0116V24.5733H51.9431V28.4364ZM51.9431 70.567H50.0116V66.7039H51.9431V70.567ZM63.7156 54.3747C63.7156 53.3079 64.5803 52.4432 65.6471 52.4432C66.7139 52.4432 67.5786 53.3079 67.5786 54.3747H63.7156ZM67.5786 40.7656C67.5786 41.8324 66.7139 42.6971 65.6471 42.6971C64.5803 42.6971 63.7156 41.8324 63.7156 40.7656H67.5786ZM59.8525 28.4364H51.9431V24.5733H59.8525V28.4364ZM51.9431 66.7039H59.8525V70.567H51.9431V66.7039ZM63.7156 37.0375V32.2995H67.5786V37.0375H63.7156ZM63.7156 62.8408V58.1028H67.5786V62.8408H63.7156ZM63.7156 58.1028V54.3747H67.5786V58.1028H63.7156ZM63.7156 40.7656V37.0375H67.5786V40.7656H63.7156ZM59.8525 66.7039C61.986 66.7039 63.7156 64.9743 63.7156 62.8408H67.5786C67.5786 67.1078 64.1195 70.567 59.8525 70.567V66.7039ZM59.8525 24.5733C64.1195 24.5733 67.5786 28.0325 67.5786 32.2995H63.7156C63.7156 30.166 61.986 28.4364 59.8525 28.4364V24.5733Z" fill="#FFF0DE"/>
<path d="M51.7236 39.4215C51.7236 37.6601 50.9224 35.9943 49.5463 34.8947L38.1888 25.8189C34.3942 22.7866 28.7768 25.4884 28.7768 30.3457V64.5883C28.7768 66.3498 29.578 68.0155 30.954 69.1151L42.3116 78.1909C46.1062 81.2232 51.7236 78.5214 51.7236 73.6641V39.4215Z" fill="white"/>
<path d="M70.737 40.382L77.9249 47.5698M77.9249 47.5698L70.737 54.7577M77.9249 47.5698H57.744" stroke="#FFF0DE" stroke-width="3.86307" stroke-linecap="round"/>
</svg>
