<svg width="30" height="30" viewBox="0 0 30 30" fill="none" xmlns="http://www.w3.org/2000/svg">
<rect opacity="0.1" width="30" height="30" rx="15" fill="#6152FF"/>
<rect x="11.6974" y="11.6973" width="2.47692" height="2.47692" rx="1.23846" fill="#6152FF"/>
<rect x="15.8256" y="15.8257" width="2.47692" height="2.47692" rx="1.23846" fill="#6152FF"/>
<path d="M17.5666 12.4336L12.4335 17.5667" stroke="#6152FF" stroke-width="1.5" stroke-linecap="round"/>
<path d="M14.4175 7.25687C14.5373 6.61099 15.4627 6.61098 15.5825 7.25687C15.885 8.88879 17.8761 9.53575 19.0801 8.39331C19.5566 7.94115 20.3053 8.48514 20.0225 9.07805C19.308 10.5761 20.5386 12.2699 22.1842 12.0533C22.8354 11.9676 23.1214 12.8477 22.5441 13.1612C21.0856 13.9532 21.0856 16.0468 22.5441 16.8388C23.1214 17.1523 22.8354 18.0324 22.1842 17.9467C20.5386 17.7301 19.308 19.4239 20.0225 20.922C20.3053 21.5149 19.5566 22.0588 19.0801 21.6067C17.8761 20.4643 15.885 21.1112 15.5825 22.7431C15.4627 23.389 14.5373 23.389 14.4175 22.7431C14.115 21.1112 12.1239 20.4643 10.9199 21.6067C10.4434 22.0588 9.6947 21.5149 9.97748 20.922C10.692 19.4239 9.46138 17.7301 7.81584 17.9467C7.16457 18.0324 6.87858 17.1523 7.45586 16.8388C8.91442 16.0468 8.91442 13.9532 7.45586 13.1612C6.87858 12.8477 7.16456 11.9676 7.81584 12.0533C9.46138 12.2699 10.692 10.5761 9.97748 9.07805C9.6947 8.48513 10.4434 7.94115 10.9199 8.39331C12.1239 9.53575 14.115 8.88879 14.4175 7.25687Z" stroke="#6152FF" stroke-width="1.5"/>
</svg>
