<svg width="30" height="30" viewBox="0 0 30 30" fill="none" xmlns="http://www.w3.org/2000/svg">
<rect opacity="0.1" width="30" height="30" rx="15" fill="#6152FF"/>
<path d="M14.2867 9.02322C14.5112 8.33223 15.4888 8.33223 15.7133 9.02322L16.348 10.9766C16.6492 11.9037 17.5131 12.5313 18.4879 12.5313H20.5418C21.2683 12.5313 21.5704 13.461 20.9826 13.8881L19.321 15.0953C18.5324 15.6683 18.2024 16.6839 18.5036 17.6109L19.1383 19.5643C19.3628 20.2553 18.572 20.8299 17.9842 20.4028L16.3225 19.1956C15.5339 18.6226 14.4661 18.6226 13.6775 19.1956L12.0158 20.4028C11.428 20.8299 10.6372 20.2553 10.8617 19.5643L11.4964 17.6109C11.7976 16.6839 11.4676 15.6683 10.679 15.0953L9.01738 13.8881C8.42959 13.461 8.73168 12.5313 9.45822 12.5313L11.5121 12.5313C12.4869 12.5313 13.3508 11.9037 13.652 10.9766L14.2867 9.02322Z" stroke="#6152FF" stroke-width="1.5"/>
</svg>
