<svg width="40" height="40" viewBox="0 0 40 40" fill="none" xmlns="http://www.w3.org/2000/svg">
<rect opacity="0.1" width="40" height="40" rx="20" fill="#6152FF"/>
<path d="M17.9053 26.9438V26.9438C17.9053 28.1008 18.8431 29.0386 20.0001 29.0386V29.0386C21.157 29.0386 22.0948 28.1008 22.0948 26.9438V26.9438" stroke="#6152FF" stroke-width="1.5"/>
<path d="M14.5634 15.7354C14.9061 12.9936 17.2368 10.936 20 10.936C22.7631 10.936 25.0939 12.9936 25.4366 15.7354L26.0386 20.5515C26.2429 22.1858 26.8701 23.7384 27.8583 25.0559C27.8699 25.0715 27.8707 25.0799 27.871 25.084C27.8715 25.091 27.8701 25.1024 27.8636 25.1154C27.8572 25.1284 27.8488 25.1364 27.8429 25.1402C27.8395 25.1424 27.8322 25.1469 27.8128 25.1469H12.1871C12.1677 25.1469 12.1605 25.1424 12.1571 25.1402C12.1512 25.1364 12.1428 25.1284 12.1363 25.1154C12.1298 25.1024 12.1285 25.091 12.1289 25.084C12.1292 25.0799 12.13 25.0715 12.1417 25.0559C13.1298 23.7384 13.7571 22.1858 13.9613 20.5515L14.5634 15.7354Z" stroke="#6152FF" stroke-width="1.5"/>
</svg>
