<svg width="211" height="210" viewBox="0 0 211 210" fill="none" xmlns="http://www.w3.org/2000/svg">
<mask id="mask0_102_3328" style="mask-type:alpha" maskUnits="userSpaceOnUse" x="0" y="0" width="211" height="210">
<circle cx="105.5" cy="105.014" r="104.706" fill="white"/>
</mask>
<g mask="url(#mask0_102_3328)">
<circle opacity="0.05" cx="105.5" cy="105.014" r="104.706" fill="white"/>
</g>
<rect x="133.921" y="75.543" width="2.00429" height="14.776" rx="0.640384" fill="#C4C4C4"/>
<rect x="75.4119" y="84.073" width="2.00429" height="9.18478" rx="0.640384" fill="#C4C4C4"/>
<rect x="75.4119" y="72.4199" width="2.00429" height="9.18478" rx="0.640384" fill="#C4C4C4"/>
<rect x="75.4119" y="63.7501" width="1.67873" height="4.89425" rx="0.640384" fill="#C4C4C4"/>
<rect x="76.0777" y="44.3517" width="58.8443" height="121.324" rx="6.40384" fill="white"/>
<mask id="mask1_102_3328" style="mask-type:alpha" maskUnits="userSpaceOnUse" x="78" y="47" width="55" height="117">
<path d="M78.5303 51.8656C78.5303 49.3899 80.5373 47.3829 83.013 47.3829H91.3993C91.9776 47.3829 92.4841 47.7705 92.6354 48.3286L92.8131 48.9839C93.1157 50.1002 94.1288 50.8753 95.2854 50.8753H115.981C117.137 50.8753 118.15 50.1002 118.453 48.9839L118.631 48.3286C118.782 47.7705 119.288 47.3829 119.867 47.3829H127.987C130.463 47.3829 132.47 49.3899 132.47 51.8656V158.685C132.47 161.161 130.463 163.168 127.987 163.168H83.013C80.5373 163.168 78.5303 161.161 78.5303 158.685V51.8656Z" fill="#6152FF"/>
</mask>
<g mask="url(#mask1_102_3328)">
<path d="M78.5303 51.8656C78.5303 49.3899 80.5373 47.3829 83.013 47.3829H91.3993C91.9776 47.3829 92.4841 47.7705 92.6354 48.3286L92.8131 48.9839C93.1157 50.1002 94.1288 50.8753 95.2854 50.8753H115.981C117.137 50.8753 118.15 50.1002 118.453 48.9839L118.631 48.3286C118.782 47.7705 119.288 47.3829 119.867 47.3829H127.987C130.463 47.3829 132.47 49.3899 132.47 51.8656V158.685C132.47 161.161 130.463 163.168 127.987 163.168H83.013C80.5373 163.168 78.5303 161.161 78.5303 158.685V51.8656Z" fill="#6152FF"/>
<rect opacity="0.2" x="155.519" y="2.45435" width="42.1729" height="230.168" transform="rotate(36.7117 155.519 2.45435)" fill="url(#paint0_linear_102_3328)"/>
<path d="M99.5794 155.247H114.732" stroke="white" stroke-width="1.28077" stroke-linecap="round"/>
</g>
<circle opacity="0.1" cx="129.735" cy="147.668" r="19.5" fill="black"/>
<circle cx="131.235" cy="146.168" r="18" fill="url(#paint1_linear_102_3328)"/>
<circle r="15.7853" transform="matrix(1 0 0 -1 53.401 84.6652)" fill="url(#paint2_linear_102_3328)"/>
<circle r="14.1422" transform="matrix(1 0 0 -1 155.142 54.5021)" fill="url(#paint3_linear_102_3328)"/>
<circle opacity="0.1" r="4" transform="matrix(1 0 0 -1 46.3596 163.168)" fill="white"/>
<circle opacity="0.1" r="4" transform="matrix(1 0 0 -1 65.1863 33.9231)" fill="white"/>
<circle opacity="0.2" r="4" transform="matrix(1 0 0 -1 169.284 84.6653)" fill="white"/>
<path d="M132.731 142.251C132.632 141.795 132.46 141.457 132.214 141.235C131.968 141.001 131.617 140.885 131.161 140.885C130.46 140.885 129.955 141.192 129.648 141.808C129.34 142.411 129.18 143.371 129.168 144.688C129.438 144.257 129.826 143.918 130.331 143.672C130.848 143.426 131.414 143.303 132.029 143.303C133.235 143.303 134.201 143.685 134.928 144.448C135.666 145.211 136.035 146.275 136.035 147.641C136.035 148.54 135.851 149.328 135.481 150.005C135.124 150.681 134.595 151.211 133.894 151.592C133.204 151.974 132.386 152.165 131.438 152.165C129.543 152.165 128.226 151.574 127.488 150.392C126.749 149.198 126.38 147.488 126.38 145.26C126.38 142.921 126.768 141.186 127.543 140.054C128.331 138.909 129.586 138.337 131.309 138.337C132.232 138.337 133.008 138.521 133.635 138.891C134.275 139.248 134.755 139.721 135.075 140.312C135.408 140.903 135.604 141.549 135.666 142.251H132.731ZM131.272 145.795C130.743 145.795 130.3 145.955 129.943 146.275C129.598 146.583 129.426 147.026 129.426 147.605C129.426 148.195 129.586 148.657 129.906 148.989C130.238 149.321 130.706 149.488 131.309 149.488C131.851 149.488 132.275 149.328 132.583 149.008C132.903 148.675 133.063 148.226 133.063 147.66C133.063 147.081 132.909 146.626 132.601 146.294C132.294 145.961 131.851 145.795 131.272 145.795Z" fill="white"/>
<path d="M150.863 58.0911V56.0625L155.508 49.4181H158.315V55.9155H159.521V58.0911H158.315V60.0021H155.802V58.0911H150.863ZM155.978 52.1817L153.509 55.9155H155.978V52.1817Z" fill="white"/>
<path d="M50.6878 83.5444C49.6294 82.9814 49.1002 82.0975 49.1002 80.8927C49.1002 80.2846 49.2578 79.7329 49.5731 79.2375C49.8884 78.7308 50.3669 78.331 51.0087 78.0383C51.6506 77.7342 52.4388 77.5822 53.3733 77.5822C54.3079 77.5822 55.0905 77.7342 55.721 78.0383C56.3629 78.331 56.8414 78.7308 57.1567 79.2375C57.472 79.7329 57.6296 80.2846 57.6296 80.8927C57.6296 81.5007 57.4832 82.0299 57.1905 82.4803C56.909 82.9307 56.5261 83.2854 56.042 83.5444C56.65 83.8372 57.1173 84.2425 57.4438 84.7605C57.7704 85.2672 57.9336 85.864 57.9336 86.5508C57.9336 87.3503 57.731 88.0428 57.3256 88.6283C56.9202 89.2026 56.3685 89.6417 55.6704 89.9457C54.9835 90.2497 54.2178 90.4017 53.3733 90.4017C52.5288 90.4017 51.7575 90.2497 51.0594 89.9457C50.3725 89.6417 49.8264 89.2026 49.4211 88.6283C49.0157 88.0428 48.813 87.3503 48.813 86.5508C48.813 85.8527 48.9763 85.2503 49.3028 84.7436C49.6294 84.2256 50.091 83.8259 50.6878 83.5444ZM54.8259 81.3318C54.8259 80.8702 54.6908 80.5155 54.4205 80.2677C54.1615 80.0088 53.8125 79.8793 53.3733 79.8793C52.9342 79.8793 52.5795 80.0088 52.3093 80.2677C52.0503 80.5267 51.9208 80.887 51.9208 81.3487C51.9208 81.7878 52.0559 82.1369 52.3262 82.3959C52.5964 82.6436 52.9455 82.7675 53.3733 82.7675C53.8012 82.7675 54.1503 82.638 54.4205 82.379C54.6908 82.12 54.8259 81.771 54.8259 81.3318ZM53.3733 84.7943C52.8441 84.7943 52.4162 84.9406 52.0897 85.2334C51.7632 85.5149 51.5999 85.909 51.5999 86.4157C51.5999 86.8886 51.7575 87.2771 52.0728 87.5811C52.3993 87.8851 52.8329 88.0371 53.3733 88.0371C53.9138 88.0371 54.3361 87.8851 54.6401 87.5811C54.9554 87.2771 55.113 86.8886 55.113 86.4157C55.113 85.9203 54.9497 85.5262 54.6232 85.2334C54.3079 84.9406 53.8913 84.7943 53.3733 84.7943Z" fill="white"/>
<defs>
<linearGradient id="paint0_linear_102_3328" x1="176.605" y1="2.45435" x2="176.605" y2="232.622" gradientUnits="userSpaceOnUse">
<stop stop-color="white"/>
<stop offset="1" stop-color="white" stop-opacity="0"/>
</linearGradient>
<linearGradient id="paint1_linear_102_3328" x1="150.36" y1="121.98" x2="117.173" y2="170.355" gradientUnits="userSpaceOnUse">
<stop stop-color="#FCBF28"/>
<stop offset="1" stop-color="#FF5C00"/>
</linearGradient>
<linearGradient id="paint2_linear_102_3328" x1="1.56246" y1="8.06138e-07" x2="31.5709" y2="31.5706" gradientUnits="userSpaceOnUse">
<stop stop-color="#6152FF"/>
<stop offset="1" stop-color="#FE9FAA"/>
</linearGradient>
<linearGradient id="paint3_linear_102_3328" x1="4.72441" y1="-7.23611" x2="20.9688" y2="28.2844" gradientUnits="userSpaceOnUse">
<stop stop-color="#FF00B8"/>
<stop offset="1" stop-color="#FFDB5A"/>
</linearGradient>
</defs>
</svg>
