<svg width="40" height="40" viewBox="0 0 40 40" fill="none" xmlns="http://www.w3.org/2000/svg">
<rect opacity="0.1" width="40" height="40" rx="20" fill="#6152FF"/>
<mask id="path-2-inside-1_102_1485" fill="white">
<path fill-rule="evenodd" clip-rule="evenodd" d="M12.2234 16.1024C12.3765 16.0613 12.4531 16.0408 12.465 16.037C12.7938 15.9311 12.8732 15.7936 12.8005 15.4559C12.7979 15.4437 12.7774 15.3671 12.7363 15.214C12.4589 14.1787 12.7549 13.0741 13.5128 12.3162C13.7921 12.037 14.1947 11.8045 15.0001 11.3395C15.8055 10.8745 16.2082 10.642 16.5897 10.5398C17.625 10.2624 18.7296 10.5584 19.4875 11.3162C19.5994 11.4282 19.6554 11.4842 19.6645 11.4924C19.9208 11.7247 20.0799 11.7247 20.3361 11.4924C20.3452 11.4842 20.401 11.4284 20.5127 11.3167C21.2705 10.5589 22.3752 10.2629 23.4104 10.5403C23.7919 10.6425 24.1946 10.875 25 11.34C25.8054 11.805 26.2081 12.0375 26.4874 12.3167C27.2452 13.0746 27.5412 14.1792 27.2638 15.2145C27.2229 15.3673 27.2024 15.4437 27.1998 15.4557C27.1269 15.7937 27.2064 15.9314 27.5355 16.0372C27.5472 16.041 27.6236 16.0614 27.7763 16.1024C28.8116 16.3798 29.6203 17.1884 29.8977 18.2237C29.9999 18.6052 29.9999 19.0702 29.9999 20.0001C29.9999 20.9301 29.9999 21.3951 29.8977 21.7766C29.6203 22.8119 28.8116 23.6205 27.7763 23.8979C27.6238 23.9388 27.5475 23.9592 27.5358 23.963C27.2066 24.0688 27.127 24.2066 27.2 24.5446C27.2026 24.5566 27.223 24.6329 27.2639 24.7855C27.5413 25.8207 27.2453 26.9254 26.4875 27.6832C26.2082 27.9625 25.8055 28.195 25.0001 28.66C24.1948 29.125 23.7921 29.3575 23.4106 29.4597C22.3753 29.7371 21.2707 29.4411 20.5128 28.6832C20.401 28.5715 20.3452 28.5156 20.336 28.5073C20.0798 28.2752 19.9208 28.2752 19.6646 28.5073C19.6555 28.5156 19.5994 28.5717 19.4874 28.6837C18.7295 29.4416 17.6249 29.7376 16.5896 29.4602C16.2081 29.358 15.8054 29.1255 15 28.6605C14.1946 28.1955 13.7919 27.963 13.5127 27.6837C12.7548 26.9259 12.4588 25.8212 12.7362 24.786C12.7772 24.6331 12.7977 24.5566 12.8003 24.5445C12.8731 24.2067 12.7936 24.069 12.4646 23.9632C12.4529 23.9594 12.3764 23.9389 12.2234 23.8979C11.1881 23.6205 10.3795 22.8119 10.1021 21.7766C9.99988 21.3951 9.99988 20.9301 9.99988 20.0001C9.99988 19.0702 9.99988 18.6052 10.1021 18.2237C10.3795 17.1884 11.1881 16.3798 12.2234 16.1024Z"/>
</mask>
<path d="M13.5128 12.3162L12.4521 11.2556L12.4521 11.2556L13.5128 12.3162ZM15.0001 11.3395L15.7501 12.6385V12.6385L15.0001 11.3395ZM16.5897 10.5398L16.9779 11.9887H16.9779L16.5897 10.5398ZM23.4104 10.5403L23.7987 9.09139L23.4104 10.5403ZM26.4874 12.3167L27.548 11.2561V11.2561L26.4874 12.3167ZM29.8977 18.2237L28.4488 18.6119V18.6119L29.8977 18.2237ZM29.8977 21.7766L28.4488 21.3884V21.3884L29.8977 21.7766ZM25.0001 28.66L24.2501 27.361L24.2501 27.361L25.0001 28.66ZM23.4106 29.4597L23.7988 30.9086H23.7988L23.4106 29.4597ZM16.5896 29.4602L16.2013 30.9091L16.5896 29.4602ZM15 28.6605L15.75 27.3615L15.75 27.3614L15 28.6605ZM13.5127 27.6837L14.5733 26.6231H14.5733L13.5127 27.6837ZM10.1021 21.7766L8.65321 22.1648L8.65321 22.1648L10.1021 21.7766ZM10.1021 18.2237L8.65321 17.8354L8.65321 17.8355L10.1021 18.2237ZM12.8003 24.5445L14.2666 24.8605L12.8003 24.5445ZM12.4646 23.9632L12.9241 22.5353L12.4646 23.9632ZM20.336 28.5073L21.3432 27.3958L20.336 28.5073ZM19.6646 28.5073L20.6717 29.6189L19.6646 28.5073ZM27.5358 23.963L27.077 22.5349L27.5358 23.963ZM27.2 24.5446L25.7338 24.8613L27.2 24.5446ZM12.8005 15.4559L14.2669 15.1402L12.8005 15.4559ZM12.465 16.037L12.0051 14.6092L12.465 16.037ZM27.1998 15.4557L25.7335 15.1394L27.1998 15.4557ZM27.5355 16.0372L27.9946 14.6092L27.5355 16.0372ZM19.6645 11.4924L18.6572 12.6039L19.6645 11.4924ZM20.3361 11.4924L19.3287 10.381L20.3361 11.4924ZM12.4521 11.2556C11.3153 12.3924 10.8713 14.0493 11.2874 15.6023L14.1852 14.8258C14.0465 14.3082 14.1945 13.7558 14.5734 13.3769L12.4521 11.2556ZM14.2501 10.0405C13.5284 10.4572 12.9062 10.8015 12.4521 11.2556L14.5734 13.3769C14.6779 13.2725 14.8611 13.1518 15.7501 12.6385L14.2501 10.0405ZM16.2015 9.0909C15.5811 9.25712 14.9719 9.62375 14.2501 10.0405L15.7501 12.6385C16.6391 12.1253 16.8353 12.0269 16.9779 11.9887L16.2015 9.0909ZM20.5481 10.2556C19.4113 9.11878 17.7544 8.6748 16.2015 9.0909L16.9779 11.9887C17.4956 11.85 18.0479 11.998 18.4268 12.3769L20.5481 10.2556ZM23.7987 9.09139C22.2458 8.67529 20.5888 9.11926 19.452 10.2561L21.5733 12.3774C21.9523 11.9985 22.5046 11.8505 23.0222 11.9892L23.7987 9.09139ZM25.75 10.0409C25.0283 9.62424 24.419 9.25761 23.7987 9.09139L23.0222 11.9892C23.1649 12.0274 23.361 12.1257 24.25 12.639L25.75 10.0409ZM27.548 11.2561C27.0939 10.802 26.4718 10.4576 25.75 10.0409L24.25 12.639C25.139 13.1523 25.3223 13.273 25.4267 13.3774L27.548 11.2561ZM28.7127 15.6027C29.1288 14.0498 28.6848 12.3929 27.548 11.2561L25.4267 13.3774C25.8056 13.7563 25.9536 14.3086 25.8149 14.8263L28.7127 15.6027ZM27.3881 17.5512C27.9057 17.6899 28.3101 18.0943 28.4488 18.6119L31.3465 17.8355C30.9304 16.2825 29.7175 15.0696 28.1646 14.6535L27.3881 17.5512ZM28.4488 18.6119C28.487 18.7546 28.4999 18.9736 28.4999 20.0001H31.4999C31.4999 19.1667 31.5128 18.4558 31.3465 17.8355L28.4488 18.6119ZM28.4999 20.0001C28.4999 21.0267 28.487 21.2457 28.4488 21.3884L31.3465 22.1648C31.5128 21.5445 31.4999 20.8335 31.4999 20.0001H28.4999ZM28.4488 21.3884C28.3101 21.906 27.9057 22.3103 27.3881 22.449L28.1646 25.3468C29.7175 24.9307 30.9304 23.7177 31.3465 22.1648L28.4488 21.3884ZM27.5481 28.7439C28.6849 27.6071 29.1289 25.9502 28.7128 24.3972L25.815 25.1737C25.9537 25.6913 25.8058 26.2436 25.4268 26.6226L27.5481 28.7439ZM25.7501 29.959C26.4719 29.5423 27.094 29.198 27.5481 28.7439L25.4268 26.6226C25.3224 26.727 25.1391 26.8477 24.2501 27.361L25.7501 29.959ZM23.7988 30.9086C24.4191 30.7424 25.0284 30.3757 25.7501 29.959L24.2501 27.361C23.3611 27.8742 23.165 27.9726 23.0223 28.0108L23.7988 30.9086ZM19.4521 29.7439C20.5889 30.8807 22.2459 31.3247 23.7988 30.9086L23.0223 28.0108C22.5047 28.1495 21.9524 28.0015 21.5734 27.6226L19.4521 29.7439ZM16.2013 30.9091C17.7543 31.3252 19.4112 30.8812 20.548 29.7444L18.4267 27.6231C18.0478 28.002 17.4954 28.15 16.9778 28.0113L16.2013 30.9091ZM14.25 29.9595C14.9718 30.3762 15.581 30.7429 16.2013 30.9091L16.9778 28.0113C16.8351 27.9731 16.639 27.8747 15.75 27.3615L14.25 29.9595ZM12.452 28.7444C12.9061 29.1985 13.5283 29.5428 14.25 29.9595L15.75 27.3614C14.861 26.8482 14.6778 26.7275 14.5733 26.6231L12.452 28.7444ZM11.2873 24.3977C10.8712 25.9506 11.3152 27.6076 12.452 28.7444L14.5733 26.6231C14.1944 26.2441 14.0464 25.6918 14.1851 25.1742L11.2873 24.3977ZM12.6116 22.449C12.094 22.3103 11.6897 21.906 11.551 21.3884L8.65321 22.1648C9.06931 23.7177 10.2823 24.9307 11.8352 25.3468L12.6116 22.449ZM11.551 21.3884C11.5128 21.2457 11.4999 21.0267 11.4999 20.0001H8.49988C8.49988 20.8335 8.48699 21.5445 8.65321 22.1648L11.551 21.3884ZM11.4999 20.0001C11.4999 18.9736 11.5128 18.7546 11.551 18.6119L8.65321 17.8355C8.48699 18.4558 8.49988 19.1667 8.49988 20.0001H11.4999ZM11.551 18.6119C11.6897 18.0943 12.094 17.6899 12.6116 17.5512L11.8352 14.6535C10.2823 15.0696 9.06931 16.2825 8.65321 17.8354L11.551 18.6119ZM14.1851 25.1742C14.2151 25.0621 14.2536 24.9209 14.2666 24.8605L11.3339 24.2285C11.3374 24.2126 11.3402 24.2006 11.3411 24.197C11.3423 24.1919 11.3432 24.1884 11.3435 24.1871C11.3441 24.1847 11.3442 24.1847 11.3432 24.1883C11.3413 24.1955 11.3381 24.2077 11.333 24.2269C11.3229 24.2649 11.308 24.3206 11.2873 24.3977L14.1851 25.1742ZM11.8352 25.3468C11.9123 25.3675 11.968 25.3824 12.006 25.3927C12.0253 25.3978 12.0375 25.4012 12.0445 25.4031C12.0482 25.4041 12.0481 25.4041 12.0458 25.4035C12.0445 25.4031 12.041 25.4021 12.036 25.4006C12.0324 25.3996 12.0206 25.3961 12.0052 25.3911L12.9241 22.5353C12.8653 22.5164 12.7238 22.4791 12.6117 22.449L11.8352 25.3468ZM14.2666 24.8605C14.3202 24.6117 14.4268 24.0138 14.0822 23.4169C13.7375 22.8199 13.1664 22.6132 12.9241 22.5353L12.0052 25.3911C12.0919 25.419 11.725 25.3341 11.4841 24.9169C11.2432 24.4996 11.3531 24.1394 11.3339 24.2285L14.2666 24.8605ZM21.5734 27.6226C21.4914 27.5405 21.3887 27.437 21.3432 27.3958L19.3289 29.6189C19.3169 29.6081 19.308 29.5996 19.3053 29.5971C19.3015 29.5935 19.2989 29.591 19.298 29.5901C19.2963 29.5884 19.2962 29.5883 19.2989 29.591C19.3042 29.5962 19.3131 29.6051 19.3272 29.6191C19.3551 29.6469 19.3958 29.6875 19.4521 29.7439L21.5734 27.6226ZM20.548 29.7444C20.6045 29.6879 20.6454 29.6471 20.6733 29.6192C20.6874 29.6052 20.6964 29.5962 20.7017 29.591C20.7044 29.5883 20.7044 29.5884 20.7026 29.5901C20.7017 29.5909 20.6991 29.5935 20.6954 29.597C20.6927 29.5996 20.6838 29.608 20.6717 29.6189L18.6574 27.3958C18.6119 27.437 18.509 27.5407 18.4267 27.6231L20.548 29.7444ZM21.3432 27.3958C21.1545 27.2248 20.6899 26.8333 20.0003 26.8333C19.3108 26.8333 18.8461 27.2248 18.6574 27.3958L20.6717 29.6189C20.7393 29.5578 20.4822 29.8333 20.0003 29.8333C19.5184 29.8333 19.2614 29.5578 19.3289 29.6189L21.3432 27.3958ZM27.3881 22.449C27.276 22.4791 27.1353 22.5162 27.077 22.5349L27.9946 25.3911C27.9792 25.396 27.9675 25.3995 27.964 25.4006C27.959 25.402 27.9555 25.403 27.9543 25.4034C27.952 25.404 27.952 25.404 27.9556 25.403C27.9628 25.401 27.9749 25.3977 27.9941 25.3925C28.0321 25.3823 28.0876 25.3674 28.1646 25.3468L27.3881 22.449ZM28.7128 24.3972C28.6922 24.3203 28.6773 24.2647 28.6672 24.2267C28.6621 24.2075 28.6589 24.1953 28.657 24.1882C28.6561 24.1845 28.6561 24.1845 28.6567 24.1869C28.657 24.1881 28.6579 24.1916 28.6591 24.1966C28.6599 24.2002 28.6628 24.2121 28.6662 24.2279L25.7338 24.8613C25.7468 24.9211 25.785 25.0616 25.815 25.1737L28.7128 24.3972ZM27.077 22.5349C26.8344 22.6128 26.2629 22.8194 25.918 23.4167C25.5732 24.014 25.68 24.6123 25.7338 24.8613L28.6662 24.2279C28.647 24.1389 28.7571 24.4993 28.5161 24.9167C28.2751 25.3341 27.9079 25.4189 27.9946 25.3911L27.077 22.5349ZM11.2874 15.6023C11.3081 15.6795 11.3231 15.7352 11.3332 15.7733C11.3383 15.7925 11.3415 15.8048 11.3434 15.8119C11.3443 15.8155 11.3443 15.8154 11.3437 15.813C11.3434 15.8118 11.3425 15.8082 11.3412 15.8031C11.3404 15.7994 11.3375 15.7874 11.3341 15.7715L14.2669 15.1402C14.2538 15.0795 14.2153 14.9379 14.1852 14.8258L11.2874 15.6023ZM12.6116 17.5512C12.7238 17.5212 12.8657 17.4838 12.9248 17.4648L12.0051 14.6092C12.0206 14.6042 12.0324 14.6007 12.036 14.5997C12.0411 14.5982 12.0446 14.5971 12.0459 14.5968C12.0483 14.5961 12.0484 14.5961 12.0447 14.5971C12.0376 14.5991 12.0255 14.6024 12.0062 14.6076C11.9682 14.6178 11.9124 14.6328 11.8352 14.6535L12.6116 17.5512ZM11.3341 15.7715C11.3532 15.8606 11.2434 15.5004 11.4842 15.0834C11.725 14.6663 12.0918 14.5813 12.0051 14.6092L12.9248 17.4648C13.1669 17.3868 13.7378 17.1801 14.0823 16.5834C14.4269 15.9866 14.3204 15.3889 14.2669 15.1402L11.3341 15.7715ZM25.8149 14.8263C25.7849 14.9385 25.7465 15.0793 25.7335 15.1394L28.6661 15.7721C28.6626 15.788 28.6598 15.7999 28.6589 15.8035C28.6577 15.8085 28.6568 15.8121 28.6565 15.8133C28.6559 15.8157 28.6559 15.8157 28.6568 15.812C28.6587 15.8049 28.6619 15.7927 28.667 15.7735C28.6771 15.7354 28.6921 15.6798 28.7127 15.6027L25.8149 14.8263ZM28.1646 14.6535C28.0875 14.6328 28.0319 14.6179 27.994 14.6077C27.9748 14.6025 27.9626 14.5992 27.9555 14.5972C27.9518 14.5962 27.9519 14.5962 27.9542 14.5969C27.9554 14.5972 27.9589 14.5982 27.9639 14.5997C27.9675 14.6008 27.9792 14.6042 27.9946 14.6092L27.0764 17.4652C27.1349 17.484 27.276 17.5212 27.3881 17.5512L28.1646 14.6535ZM25.7335 15.1394C25.6798 15.3883 25.5731 15.9864 25.9179 16.5835C26.2626 17.1806 26.834 17.3873 27.0764 17.4652L27.9946 14.6092C27.9079 14.5813 28.275 14.6662 28.5159 15.0835C28.7569 15.5008 28.6469 15.8611 28.6661 15.7721L25.7335 15.1394ZM18.4268 12.3769C18.5092 12.4593 18.6118 12.5627 18.6572 12.6039L20.6719 10.381C20.6839 10.3919 20.6928 10.4004 20.6954 10.4029C20.6992 10.4064 20.7018 10.409 20.7027 10.4098C20.7044 10.4115 20.7044 10.4115 20.7017 10.4088C20.6964 10.4036 20.6874 10.3947 20.6733 10.3806C20.6454 10.3528 20.6046 10.3121 20.5481 10.2556L18.4268 12.3769ZM19.452 10.2561C19.3957 10.3124 19.355 10.353 19.3272 10.3808C19.3131 10.3948 19.3042 10.4037 19.2989 10.4088C19.2962 10.4115 19.2962 10.4115 19.298 10.4098C19.2989 10.4089 19.3015 10.4064 19.3052 10.4029C19.3079 10.4003 19.3167 10.3919 19.3287 10.381L21.3435 12.6039C21.3888 12.5627 21.4913 12.4594 21.5733 12.3774L19.452 10.2561ZM18.6572 12.6039C18.8459 12.7749 19.3106 13.1666 20.0003 13.1666C20.69 13.1666 21.1547 12.7749 21.3435 12.6039L19.3287 10.381C19.2612 10.4422 19.5183 10.1666 20.0003 10.1666C20.4823 10.1666 20.7394 10.4422 20.6719 10.381L18.6572 12.6039Z" fill="#6152FF" mask="url(#path-2-inside-1_102_1485)"/>
<circle cx="20" cy="20" r="3.25" stroke="#6152FF" stroke-width="1.5"/>
</svg>
