<svg width="20" height="17" viewBox="0 0 20 17" fill="none" xmlns="http://www.w3.org/2000/svg">
<mask id="path-1-inside-1_102_186" fill="white">
<path fill-rule="evenodd" clip-rule="evenodd" d="M18.8136 7.822C19.3876 7.42431 19.3876 6.57569 18.8136 6.17801L10.3195 0.293152C9.65632 -0.166328 8.75002 0.308325 8.75002 1.11515V3.125L7.20397 3.2796C3.11435 3.68857 -1.90735e-06 7.12989 -1.90735e-06 11.2399V17L1.51104 14.5823C3.07171 12.0853 5.85974 10.6695 8.75002 10.8351V12.8849C8.75002 13.6917 9.65631 14.1663 10.3195 13.7069L18.8136 7.822Z"/>
</mask>
<path d="M18.8136 6.17801L19.6678 4.94502H19.6678L18.8136 6.17801ZM18.8136 7.822L17.9593 6.589L18.8136 7.822ZM10.3195 0.293152L11.1738 -0.939841L11.1738 -0.93984L10.3195 0.293152ZM8.75002 3.125H10.25V4.48248L8.89928 4.61755L8.75002 3.125ZM7.20397 3.2796L7.05471 1.78705L7.20397 3.2796ZM-1.90735e-06 17L1.272 17.795L-1.5 22.2302V17H-1.90735e-06ZM1.51104 14.5823L0.239038 13.7873V13.7873L1.51104 14.5823ZM8.75002 10.8351L8.83579 9.33751L10.25 9.41851V10.8351H8.75002ZM10.3195 13.7069L11.1738 14.9398L11.1738 14.9398L10.3195 13.7069ZM19.6678 4.94502C21.1028 5.93923 21.1028 8.06078 19.6678 9.05499L17.9593 6.589C17.6723 6.78785 17.6723 7.21216 17.9593 7.411L19.6678 4.94502ZM11.1738 -0.93984L19.6678 4.94502L17.9593 7.411L9.46528 1.52614L11.1738 -0.93984ZM7.25002 1.11515C7.25002 -0.901909 9.51576 -2.08854 11.1738 -0.939841L9.46528 1.52614C9.79687 1.75588 10.25 1.51856 10.25 1.11515H7.25002ZM7.25002 3.125V1.11515H10.25V3.125H7.25002ZM7.05471 1.78705L8.60077 1.63244L8.89928 4.61755L7.35322 4.77216L7.05471 1.78705ZM-1.5 11.2399C-1.5 6.35926 2.1983 2.27269 7.05471 1.78705L7.35322 4.77216C4.03041 5.10444 1.5 7.90052 1.5 11.2399H-1.5ZM-1.5 17V11.2399H1.5V17H-1.5ZM2.78303 15.3773L1.272 17.795L-1.272 16.205L0.239038 13.7873L2.78303 15.3773ZM8.66426 12.3326C6.31627 12.1981 4.05092 13.3487 2.78303 15.3773L0.239038 13.7873C2.0925 10.8218 5.40321 9.14092 8.83579 9.33751L8.66426 12.3326ZM7.25002 12.8849V10.8351H10.25V12.8849H7.25002ZM11.1738 14.9398C9.51575 16.0885 7.25002 14.9019 7.25002 12.8849H10.25C10.25 12.4814 9.79688 12.2441 9.46527 12.4739L11.1738 14.9398ZM19.6678 9.05499L11.1738 14.9398L9.46527 12.4739L17.9593 6.589L19.6678 9.05499Z" fill="white" mask="url(#path-1-inside-1_102_186)"/>
</svg>
