<svg width="40" height="40" viewBox="0 0 40 40" fill="none" xmlns="http://www.w3.org/2000/svg">
<rect opacity="0.1" width="40" height="40" rx="20" fill="#6152FF"/>
<path d="M11 21V22.6C11 24.8402 11 25.9603 11.436 26.816C11.8195 27.5686 12.4314 28.1805 13.184 28.564C14.0397 29 15.1598 29 17.4 29H22.6C24.8402 29 25.9603 29 26.816 28.564C27.5686 28.1805 28.1805 27.5686 28.564 26.816C29 25.9603 29 24.8402 29 22.6V21" stroke="#6152FF" stroke-width="1.5" stroke-linecap="round"/>
<path d="M11 17.2502C11 15.57 11 14.73 11.327 14.0882C11.6146 13.5237 12.0735 13.0648 12.638 12.7772C13.2798 12.4502 14.1198 12.4502 15.8 12.4502H24.2C25.8802 12.4502 26.7202 12.4502 27.362 12.7772C27.9265 13.0648 28.3854 13.5237 28.673 14.0882C29 14.73 29 15.57 29 17.2502V18H11V17.2502Z" stroke="#6152FF" stroke-width="1.5"/>
<path d="M15 11V14" stroke="#6152FF" stroke-width="1.5" stroke-linecap="round"/>
<path d="M25 11V14" stroke="#6152FF" stroke-width="1.5" stroke-linecap="round"/>
</svg>
