<svg width="78" height="59" viewBox="0 0 78 59" fill="none" xmlns="http://www.w3.org/2000/svg">
<path d="M13.7845 47.9914H64.2156V48.75C64.2156 54.2729 59.7384 58.75 54.2156 58.75H23.7845C18.2617 58.75 13.7845 54.2729 13.7845 48.75V47.9914Z" fill="#FFEB7A"/>
<path d="M39 47.9914H64.2155V48.75C64.2155 54.2729 59.7384 58.75 54.2155 58.75H39V47.9914Z" fill="#FFCB49"/>
<path d="M5.71545 15.0432L27.0646 24.4569L38.9999 3.27591L50.9353 24.4569L72.2844 15.0432L64.2155 47.9914H13.7844L5.71545 15.0432Z" fill="#FFCB49"/>
<path d="M64.2155 47.9914L72.2845 15.0432L50.9353 24.4569L39 3.27591V47.9914H64.2155Z" fill="#FFAD09"/>
<circle cx="7.39655" cy="17.3966" r="7.39655" fill="#FFEB7A"/>
<circle cx="38.9999" cy="7.64655" r="7.39655" fill="#FFEB7A"/>
<path d="M39 15.0431C43.085 15.0431 46.3966 11.7316 46.3966 7.64655C46.3966 3.56155 43.085 0.25 39 0.25V15.0431Z" fill="#FFCB49"/>
<circle cx="70.6035" cy="17.3966" r="7.39655" fill="#FFCB49"/>
<path d="M36.3103 38.2413C36.3103 36.7559 37.5145 35.5517 39 35.5517C40.4854 35.5517 41.6896 36.7559 41.6896 38.2414V47.9914H36.3103V38.2413Z" fill="#FFAD09"/>
<path d="M41.6897 47.9914V38.2414C41.6897 36.7559 40.4855 35.5517 39 35.5517V47.9914H41.6897Z" fill="#FF8C00"/>
<path d="M47.4052 41.9397C47.4052 40.4542 48.6094 39.25 50.0948 39.25C51.5803 39.25 52.7845 40.4542 52.7845 41.9397V47.9914H47.4052V41.9397Z" fill="#FF8C00"/>
<path d="M25.2155 41.9397C25.2155 40.4542 26.4197 39.25 27.9051 39.25C29.3906 39.25 30.5948 40.4542 30.5948 41.9397V47.9914H25.2155V41.9397Z" fill="#FFAD09"/>
</svg>
