<svg width="40" height="40" viewBox="0 0 40 40" fill="none" xmlns="http://www.w3.org/2000/svg">
<rect opacity="0.1" width="40" height="40" rx="20" fill="#6152FF"/>
<mask id="path-2-inside-1_102_1837" fill="white">
<path fill-rule="evenodd" clip-rule="evenodd" d="M20.0007 15.5483C17.3847 15.5483 15.062 16.8019 13.5991 18.7495C12.9357 19.6327 11.682 19.8109 10.7988 19.1475C9.91566 18.4841 9.73748 17.2304 10.4009 16.3472C12.5868 13.437 16.0735 11.5483 20.0007 11.5483C23.928 11.5483 27.4147 13.437 29.6006 16.3472C30.264 17.2304 30.0858 18.4841 29.2026 19.1475C28.3194 19.8109 27.0657 19.6327 26.4023 18.7495C24.9394 16.8019 22.6167 15.5483 20.0007 15.5483ZM20 21.5483C19.02 21.5483 18.1498 22.0162 17.5992 22.7494C16.9358 23.6326 15.6821 23.8109 14.7989 23.1475C13.9157 22.4842 13.7375 21.2305 14.4008 20.3473C15.6744 18.6515 17.7086 17.5483 20 17.5483C22.2914 17.5483 24.3256 18.6515 25.5992 20.3473C26.2625 21.2305 26.0843 22.4842 25.2011 23.1475C24.3179 23.8109 23.0641 23.6326 22.4008 22.7494C21.8501 22.0162 20.98 21.5483 20 21.5483ZM20 23.5483C18.6459 23.5483 17.5481 24.6461 17.5481 26.0002C17.5481 27.3544 18.6459 28.4521 20 28.4521C21.3541 28.4521 22.4519 27.3544 22.4519 26.0002C22.4519 24.6461 21.3541 23.5483 20 23.5483Z"/>
</mask>
<path d="M13.5991 18.7495L14.7985 19.6504L14.7985 19.6504L13.5991 18.7495ZM10.7988 19.1475L9.89797 20.3468L9.89797 20.3468L10.7988 19.1475ZM10.4009 16.3472L9.20151 15.4463H9.20151L10.4009 16.3472ZM29.6006 16.3472L28.4012 17.2481V17.2481L29.6006 16.3472ZM29.2026 19.1475L30.1035 20.3468L29.2026 19.1475ZM26.4023 18.7495L27.6017 17.8486V17.8486L26.4023 18.7495ZM17.5992 22.7494L16.3998 21.8486H16.3998L17.5992 22.7494ZM14.7989 23.1475L13.8981 24.3469L13.8981 24.3469L14.7989 23.1475ZM14.4008 20.3473L13.2014 19.4464L13.2014 19.4464L14.4008 20.3473ZM25.5992 20.3473L24.3998 21.2481L25.5992 20.3473ZM25.2011 23.1475L26.1019 24.3469L26.1019 24.3469L25.2011 23.1475ZM22.4008 22.7494L23.6002 21.8486L23.6002 21.8486L22.4008 22.7494ZM14.7985 19.6504C15.99 18.064 17.876 17.0483 20.0007 17.0483V14.0483C16.8934 14.0483 14.1341 15.5397 12.3998 17.8486L14.7985 19.6504ZM9.89797 20.3468C11.4435 21.5077 13.6376 21.1959 14.7985 19.6504L12.3998 17.8486C12.2339 18.0694 11.9205 18.114 11.6997 17.9481L9.89797 20.3468ZM9.20151 15.4463C8.0406 16.9919 8.35241 19.1859 9.89797 20.3468L11.6997 17.9481C11.4789 17.7823 11.4344 17.4688 11.6002 17.2481L9.20151 15.4463ZM20.0007 10.0483C15.5815 10.0483 11.6584 12.1754 9.20151 15.4463L11.6002 17.2481C13.5152 14.6986 16.5655 13.0483 20.0007 13.0483V10.0483ZM30.7999 15.4463C28.3431 12.1754 24.42 10.0483 20.0007 10.0483V13.0483C23.436 13.0483 26.4863 14.6986 28.4012 17.2481L30.7999 15.4463ZM30.1035 20.3468C31.649 19.1859 31.9609 16.9919 30.7999 15.4463L28.4012 17.2481C28.5671 17.4688 28.5225 17.7823 28.3017 17.9481L30.1035 20.3468ZM25.203 19.6504C26.3639 21.1959 28.5579 21.5077 30.1035 20.3468L28.3017 17.9481C28.081 18.114 27.7675 18.0694 27.6017 17.8486L25.203 19.6504ZM20.0007 17.0483C22.1255 17.0483 24.0114 18.064 25.203 19.6504L27.6017 17.8486C25.8674 15.5397 23.108 14.0483 20.0007 14.0483V17.0483ZM18.7986 23.6502C19.0774 23.279 19.5106 23.0483 20 23.0483V20.0483C18.5294 20.0483 17.2223 20.7535 16.3998 21.8486L18.7986 23.6502ZM13.8981 24.3469C15.4437 25.5078 17.6377 25.1959 18.7986 23.6502L16.3998 21.8486C16.234 22.0694 15.9205 22.114 15.6997 21.9481L13.8981 24.3469ZM13.2014 19.4464C12.0406 20.9921 12.3525 23.1861 13.8981 24.3469L15.6997 21.9481C15.4789 21.7823 15.4344 21.4689 15.6002 21.2481L13.2014 19.4464ZM20 16.0483C17.2164 16.0483 14.7458 17.3902 13.2014 19.4464L15.6002 21.2481C16.603 19.9129 18.2009 19.0483 20 19.0483V16.0483ZM26.7986 19.4464C25.2542 17.3902 22.7836 16.0483 20 16.0483V19.0483C21.7991 19.0483 23.397 19.9129 24.3998 21.2481L26.7986 19.4464ZM26.1019 24.3469C27.6475 23.1861 27.9594 20.9921 26.7986 19.4464L24.3998 21.2481C24.5656 21.4689 24.5211 21.7823 24.3003 21.9481L26.1019 24.3469ZM21.2014 23.6502C22.3623 25.1959 24.5563 25.5078 26.1019 24.3469L24.3003 21.9481C24.0795 22.114 23.766 22.0694 23.6002 21.8486L21.2014 23.6502ZM20 23.0483C20.4894 23.0483 20.9226 23.279 21.2014 23.6502L23.6002 21.8486C22.7777 20.7535 21.4706 20.0483 20 20.0483V23.0483ZM19.0481 26.0002C19.0481 25.4745 19.4743 25.0483 20 25.0483V22.0483C17.8174 22.0483 16.0481 23.8177 16.0481 26.0002H19.0481ZM20 26.9521C19.4743 26.9521 19.0481 26.5259 19.0481 26.0002H16.0481C16.0481 28.1828 17.8174 29.9521 20 29.9521V26.9521ZM20.9519 26.0002C20.9519 26.5259 20.5257 26.9521 20 26.9521V29.9521C22.1826 29.9521 23.9519 28.1828 23.9519 26.0002H20.9519ZM20 25.0483C20.5257 25.0483 20.9519 25.4745 20.9519 26.0002H23.9519C23.9519 23.8177 22.1826 22.0483 20 22.0483V25.0483Z" fill="#6152FF" mask="url(#path-2-inside-1_102_1837)"/>
</svg>
